HIERARCHY
ROOT Hips
{
	OFFSET 0.000000 0.000000 0.000000
	CHANNELS 6 Xposition Yposition Zposition Zrotation Yrotation Xrotation 
	JOINT LeftUpLeg_virtual
	{
		OFFSET 0.000000 0.000000 0.000000
		CHANNELS 3 Zrotation Yrotation Xrotation
		JOINT LeftUpLeg
		{
			OFFSET 10.205400 -3.823500 0.155100
			CHANNELS 3 Zrotation Yrotation Xrotation
			JOINT LeftLeg
			{
				OFFSET 0.708757 -12.982077 0.567790
				CHANNELS 3 Zrotation Yrotation Xrotation
				JOINT LeftFoot
				{
					OFFSET -0.708756 -10.717838 -2.184338
					CHANNELS 3 Zrotation Yrotation Xrotation
					JOINT LeftToeBase
					{
						OFFSET 0.108149 -7.191104 7.560241
						CHANNELS 3 Zrotation Yrotation Xrotation
						End Site
						{
							OFFSET 0.000000 0.000000 0.000000
						}
					}
				}
			}
		}
	}
	JOINT RightUpLeg_virtual
	{
		OFFSET 0.000000 0.000000 0.000000
		CHANNELS 3 Zrotation Yrotation Xrotation
		JOINT RightUpLeg
		{
			OFFSET -10.205400 -3.823500 0.005500
			CHANNELS 3 Zrotation Yrotation Xrotation
			JOINT RightLeg
			{
				OFFSET -0.708756 -12.982134 0.610632
				CHANNELS 3 Zrotation Yrotation Xrotation
				JOINT RightFoot
				{
					OFFSET 0.708754 -10.717769 -1.945823
					CHANNELS 3 Zrotation Yrotation Xrotation
					JOINT RightToeBase
					{
						OFFSET -0.108140 -7.191069 7.372968
						CHANNELS 3 Zrotation Yrotation Xrotation
						End Site
						{
							OFFSET 0.000000 0.000000 0.000000
						}
					}
				}
			}
		}
	}
	JOINT Spine_virtual
	{
		OFFSET 0.000000 0.000000 0.000000
		CHANNELS 3 Zrotation Yrotation Xrotation
		JOINT Spine
		{
			OFFSET 0.000000 6.876099 0.125700
			CHANNELS 3 Zrotation Yrotation Xrotation
			JOINT Spine1
			{
				OFFSET 0.000000 8.022060 0.146608
				CHANNELS 3 Zrotation Yrotation Xrotation
				JOINT Spine2
				{
					OFFSET 0.000000 9.168068 0.167552
					CHANNELS 3 Zrotation Yrotation Xrotation
					JOINT Neck_virtual
					{
						OFFSET 0.000000 0.000000 0.000000
						CHANNELS 3 Zrotation Yrotation Xrotation
						JOINT Neck
						{
							OFFSET 0.000000 10.314075 0.188496
							CHANNELS 3 Zrotation Yrotation Xrotation
							JOINT Head
							{
								OFFSET 0.000000 7.643700 -2.377400
								CHANNELS 3 Zrotation Yrotation Xrotation
								End Site
								{
									OFFSET 0.000000 0.000000 0.000000
								}
							}
						}
					}
					JOINT LeftShoulder_virtual
					{
						OFFSET 0.000000 0.000000 0.000000
						CHANNELS 3 Zrotation Yrotation Xrotation
						JOINT LeftShoulder
						{
							OFFSET 4.392200 8.824978 0.174984
							CHANNELS 3 Zrotation Yrotation Xrotation
							JOINT LeftArm
							{
								OFFSET 8.771219 -2.981674 -0.026999
								CHANNELS 3 Zrotation Yrotation Xrotation
								JOINT LeftForeArm
								{
									OFFSET 8.512804 0.000000 -0.000000
									CHANNELS 3 Zrotation Yrotation Xrotation
									JOINT LeftHand
									{
										OFFSET 18.484802 0.000000 -0.000000
										CHANNELS 3 Zrotation Yrotation Xrotation
										End Site
										{
											OFFSET 0.000000 0.000000 0.000000
										}
									}
								}
							}
						}
					}
					JOINT RightShoulder_virtual
					{
						OFFSET 0.000000 0.000000 0.000000
						CHANNELS 3 Zrotation Yrotation Xrotation
						JOINT RightShoulder
						{
							OFFSET -4.392200 8.824993 0.141379
							CHANNELS 3 Zrotation Yrotation Xrotation
							JOINT RightArm
							{
								OFFSET -8.771282 -2.981682 -0.094208
								CHANNELS 3 Zrotation Yrotation Xrotation
								JOINT RightForeArm
								{
									OFFSET -8.494598 0.000000 0.000000
									CHANNELS 3 Zrotation Yrotation Xrotation
									JOINT RightHand
									{
										OFFSET -18.483803 0.000000 0.000001
										CHANNELS 3 Zrotation Yrotation Xrotation
										End Site
										{
											OFFSET 0.000000 0.000000 0.000000
										}
									}
								}
							}
						}
					}
				}
			}
		}
	}
}
MOTION
Frames: 13
Frame Time: 0.033333
2.691158 35.901211 9.228915 179.901842 3.245545 -179.721866 -2.977244 -3.398033 10.529336 -13.485175 2.353037 -18.873266 18.469525 10.520697 23.352034 3.281474 -0.012702 0.666899 0.000000 0.000000 0.000000 1.890590 -1.053045 9.095960 1.575236 -1.237141 -11.502390 -6.066723 -0.010205 15.516771 6.203417 1.276145 1.866861 0.000000 0.000000 0.000000 0.398626 0.457090 -1.254000 -3.588659 2.320724 -7.211577 0.377171 -2.699576 4.465729 0.030426 0.028131 0.056106 0.178217 -1.082522 6.632117 3.424552 0.840384 20.594047 0.000000 0.000000 0.000000 1.573192 -0.371711 3.413255 -7.533083 -0.200896 -8.174250 -12.833255 16.199371 -38.034165 0.769038 -47.002773 -2.002047 0.000000 0.000000 0.000000 -1.857219 0.260224 2.901085 18.770475 -5.641800 -11.949894 9.269132 -12.708462 -49.612623 1.367937 33.383588 2.122969 0.000000 0.000000 0.000000 
2.684550 35.910797 9.334420 179.839728 3.176349 -179.650327 -2.873120 -3.196951 10.521503 -13.395664 2.911345 -18.786551 18.885885 11.240047 23.273485 3.637317 0.306558 0.450469 0.000000 0.000000 0.000000 1.978536 -1.177441 9.142358 1.648081 -1.636342 -11.461174 -6.082451 -0.549554 15.497812 5.791647 0.896423 1.745378 0.000000 0.000000 0.000000 0.308148 0.447176 -1.294470 -3.633818 2.384025 -7.239727 0.350482 -2.690569 4.450390 0.077922 0.042303 0.103324 0.294952 -1.243271 6.548172 3.538627 0.939906 20.529775 0.000000 0.000000 0.000000 1.587291 -0.411014 3.358767 -7.515093 -0.380046 -8.125371 -12.964025 15.883772 -37.869089 0.618011 -47.191881 -1.830166 0.000000 0.000000 0.000000 -1.866015 0.262712 2.837007 18.882539 -5.599336 -11.725148 9.451366 -12.576601 -49.309837 1.391237 33.220766 2.090525 0.000000 0.000000 0.000000 
2.683806 35.924435 9.452380 179.844809 3.146148 -179.682538 -2.824955 -3.224165 10.412105 -13.392982 2.961989 -18.732333 18.791331 11.361139 22.901431 3.633179 0.291496 0.572932 0.000000 0.000000 0.000000 2.030696 -1.175424 9.063471 1.561562 -1.770690 -11.527384 -6.002250 -0.576073 15.379339 5.841239 0.877791 1.839532 0.000000 0.000000 0.000000 0.330640 0.370199 -1.190150 -3.669099 2.520813 -7.241504 0.276437 -2.839322 4.455530 0.024275 0.056663 0.061345 0.282709 -1.245820 6.505594 3.375274 1.004990 20.437010 0.000000 0.000000 0.000000 1.577276 -0.322440 3.324816 -7.510263 -0.582408 -7.935555 -13.136987 15.299122 -37.088364 0.856989 -47.683169 -1.995303 0.000000 0.000000 0.000000 -1.852346 0.330717 2.912397 18.967956 -5.350491 -11.562924 10.037464 -12.086305 -48.846757 1.404999 33.042638 1.991009 0.000000 0.000000 0.000000 
2.693529 35.936947 9.567601 179.835466 3.066521 -179.708547 -2.772820 -3.286773 10.343816 -13.401493 3.023415 -18.655863 18.644108 11.476107 22.452558 3.626086 0.304695 0.737935 0.000000 0.000000 0.000000 2.065148 -1.238510 8.999865 1.589646 -2.000484 -11.604951 -6.020677 -0.760651 15.280072 5.934456 1.076899 1.998398 0.000000 0.000000 0.000000 0.333948 0.248834 -1.042760 -3.685655 2.631265 -7.280456 0.248037 -2.709414 4.468069 0.022970 0.013354 0.051948 0.255171 -1.256572 6.530768 3.090571 1.142806 20.338246 0.000000 0.000000 0.000000 1.570599 -0.297046 3.365478 -7.454807 -0.927188 -7.784035 -13.339658 14.594576 -35.808571 0.948158 -48.602807 -1.999098 0.000000 0.000000 0.000000 -1.853452 0.349773 2.918001 18.968772 -5.074376 -11.092502 10.853734 -11.387586 -48.217311 1.244528 32.918312 1.680998 0.000000 0.000000 0.000000 
2.709371 35.950710 9.678957 179.822748 2.888626 -179.717044 -2.724398 -3.358618 10.317167 -13.402919 3.059060 -18.569888 18.448423 11.572172 21.991864 3.618901 0.335635 0.912424 0.000000 0.000000 0.000000 2.079346 -1.353829 8.972927 1.622977 -2.311363 -11.710069 -6.100036 -1.021938 15.209153 6.272756 1.037726 2.130560 0.000000 0.000000 0.000000 0.319510 0.169716 -0.932367 -3.680543 2.786441 -7.321486 0.255333 -2.726717 4.514385 0.069771 0.009491 0.037676 0.138452 -1.133738 6.538131 2.627135 1.249393 20.144087 0.000000 0.000000 0.000000 1.531294 -0.315039 3.367541 -7.360796 -1.402217 -7.381207 -13.616307 13.744299 -34.341682 0.855006 -49.775912 -1.790467 0.000000 0.000000 0.000000 -1.907867 0.380930 2.898395 18.897129 -4.652467 -10.465217 11.775515 -10.390883 -47.299098 1.019349 33.004348 1.269431 0.000000 0.000000 0.000000 
2.728210 35.961044 9.781017 179.837037 2.681671 -179.736483 -2.650510 -3.354057 10.296429 -13.352643 3.057536 -18.498878 18.219931 11.651584 21.587489 3.617934 0.372442 1.040496 0.000000 0.000000 0.000000 2.138357 -1.436627 8.959166 1.603312 -2.586979 -11.809070 -6.085618 -1.159858 15.200323 6.432785 1.006310 2.198203 0.000000 0.000000 0.000000 0.307092 0.105601 -0.830010 -3.631594 2.920028 -7.360237 0.243264 -2.753147 4.591558 0.060087 0.003757 0.037184 0.065561 -1.127190 6.533133 2.200844 1.373326 19.935589 0.000000 0.000000 0.000000 1.530715 -0.330743 3.387070 -7.231763 -1.965713 -6.975485 -13.917649 12.613543 -32.472038 1.063412 -50.947317 -1.878390 0.000000 0.000000 0.000000 -1.927987 0.373680 2.971715 18.748762 -4.089951 -9.727365 12.758719 -9.304274 -46.064865 0.868996 33.464795 0.928933 0.000000 0.000000 0.000000 
2.742698 35.970295 9.888800 179.840657 2.446876 -179.832406 -2.608253 -3.345409 10.208379 -13.269514 3.052625 -18.424770 17.932515 11.733738 21.176599 3.638351 0.403808 1.051400 0.000000 0.000000 0.000000 2.187606 -1.491744 8.915801 1.594816 -2.887723 -11.866934 -6.087511 -1.297417 15.270969 6.605317 0.955520 2.168357 0.000000 0.000000 0.000000 0.247766 0.089916 -0.695621 -3.540381 3.035485 -7.376836 0.247232 -2.773477 4.669579 0.063610 0.021270 0.030840 0.068878 -1.199367 6.566797 1.931177 1.609825 19.760861 0.000000 0.000000 0.000000 1.500726 -0.349212 3.467159 -7.041510 -2.609083 -6.708097 -14.425643 11.207679 -30.460318 1.106572 -52.251623 -1.780445 0.000000 0.000000 0.000000 -1.934826 0.369462 3.036070 18.665372 -3.317649 -8.746405 13.735627 -8.316587 -44.186444 0.706096 34.250117 0.608640 0.000000 0.000000 0.000000 
2.744344 35.980404 9.997684 179.819852 2.088350 -179.811246 -2.604628 -3.359941 10.090111 -13.163713 3.014343 -18.449627 17.612990 11.754610 20.869170 3.731539 0.453077 1.080415 0.000000 0.000000 0.000000 2.232101 -1.630834 8.821223 1.556715 -3.180528 -11.932965 -6.043224 -1.308384 15.333558 6.754883 0.841780 2.179833 0.000000 0.000000 0.000000 0.154106 0.073269 -0.744979 -3.398880 3.111973 -7.404111 0.231589 -2.792911 4.829441 0.017149 0.048714 0.026286 0.123554 -1.311325 6.646306 1.602730 1.797422 19.591931 0.000000 0.000000 0.000000 1.593370 -0.470976 3.603753 -6.840294 -3.263267 -6.370205 -15.196833 9.723291 -28.299473 1.106095 -53.655077 -1.634000 0.000000 0.000000 0.000000 -1.845041 0.296143 3.139660 18.559084 -2.459754 -7.717428 14.974505 -7.542545 -41.818909 0.698219 35.533649 0.473362 0.000000 0.000000 0.000000 
2.738761 35.987625 10.116523 179.838198 1.729219 -179.908371 -2.603200 -3.372160 9.956581 -13.012793 2.971210 -18.350953 17.261145 11.791283 20.685180 3.854776 0.483011 0.994744 0.000000 0.000000 0.000000 2.285594 -1.836139 8.730932 1.552646 -3.454115 -11.966826 -6.017052 -1.279534 15.436352 6.921002 0.716572 2.185869 0.000000 0.000000 0.000000 0.065783 -0.026643 -0.727181 -3.209766 3.091205 -7.428737 0.240378 -2.878048 4.974251 0.059697 0.016937 0.049827 0.104971 -1.291852 6.742504 1.466369 2.104951 19.571309 0.000000 0.000000 0.000000 1.468150 -0.512215 3.650951 -6.737388 -3.793414 -5.970314 -16.309771 8.329283 -26.099831 1.195587 -55.217291 -1.699709 0.000000 0.000000 0.000000 -1.941232 0.277429 3.248035 18.568984 -1.396594 -6.658272 16.546528 -6.943826 -38.431408 0.425473 37.228151 0.137039 0.000000 0.000000 0.000000 
2.731066 35.993309 10.236406 179.838799 1.452570 -179.929149 -2.629417 -3.384963 9.932352 -12.871560 2.943561 -18.429621 16.883415 11.831593 20.492543 4.047316 0.521497 0.898705 0.000000 0.000000 0.000000 2.342638 -1.866889 8.616916 1.525989 -3.743143 -12.061451 -5.985681 -1.192941 15.541201 7.060307 0.545841 2.091053 0.000000 0.000000 0.000000 -0.014766 -0.102751 -0.756177 -3.018971 3.078958 -7.535253 0.229732 -2.901387 5.138016 0.013423 0.028594 0.023735 0.120184 -1.358177 6.892421 1.209435 2.258161 19.622319 0.000000 0.000000 0.000000 1.509421 -0.559717 3.802758 -6.740371 -4.296746 -5.615578 -17.917263 7.068796 -23.574622 1.043103 -56.937802 -1.264063 0.000000 0.000000 0.000000 -1.886917 0.231386 3.407812 18.762694 -0.355498 -5.513089 18.634400 -6.743967 -34.680101 0.252485 39.342962 -0.072180 0.000000 0.000000 0.000000 
2.714954 35.995747 10.348645 179.860437 1.126036 -179.916868 -2.629603 -3.292854 9.759225 -12.729075 2.919729 -18.448551 16.464034 11.820430 20.345125 4.259952 0.517054 0.816006 0.000000 0.000000 0.000000 2.406800 -1.968640 8.572995 1.532624 -3.984777 -12.254438 -5.990084 -1.087410 15.628337 7.197582 0.351040 2.022630 0.000000 0.000000 0.000000 -0.062616 -0.204036 -0.741313 -2.816135 2.993038 -7.670477 0.242216 -2.950386 5.295721 0.023690 0.004108 0.023513 0.061359 -1.298316 7.099229 1.027633 2.415370 19.784428 0.000000 0.000000 0.000000 1.472103 -0.542197 3.931320 -6.892702 -4.669835 -5.200468 -20.108710 6.113363 -20.410415 0.932203 -58.634838 -0.996757 0.000000 0.000000 0.000000 -1.914724 0.281337 3.584434 19.239922 0.721240 -4.155940 21.223896 -6.860747 -30.565622 0.041508 41.687356 -0.322353 0.000000 0.000000 0.000000 
2.701724 35.992897 10.446095 179.911622 0.858268 -179.918985 -2.611482 -3.167267 9.943904 -12.559157 2.786367 -18.919522 16.038292 11.761494 20.333951 4.507810 0.478422 0.780269 0.000000 0.000000 0.000000 2.479125 -2.026852 8.608226 1.573889 -4.213189 -12.505486 -6.013537 -1.013577 15.800135 7.347083 0.164274 1.917935 0.000000 0.000000 0.000000 -0.082790 -0.253770 -0.619874 -2.621225 2.910573 -7.830158 0.271687 -2.933171 5.446872 0.057152 0.014686 -0.000291 0.021965 -1.231470 7.312573 1.020814 2.644869 20.013071 0.000000 0.000000 0.000000 1.376824 -0.550960 4.096289 -7.187583 -5.077299 -4.757939 -22.984737 5.499005 -16.321577 0.661104 -60.118533 -0.560925 0.000000 0.000000 0.000000 -2.026534 0.291769 3.717008 19.973039 1.690655 -2.787606 24.220867 -7.185479 -25.959138 -0.454306 43.986507 -0.864607 0.000000 0.000000 0.000000 
2.690134 35.983242 10.540533 179.883810 0.651047 -179.934353 -2.640068 -3.037211 10.080400 -12.412979 2.684534 -19.274365 15.612158 11.721140 20.280843 4.817543 0.422044 0.791612 0.000000 0.000000 0.000000 2.463317 -2.071329 8.722905 1.591713 -4.458334 -12.870908 -5.989331 -0.925050 16.000024 7.518239 0.007259 1.886308 0.000000 0.000000 0.000000 -0.139463 -0.293386 -0.415779 -2.499100 2.762920 -7.970759 0.272436 -2.915220 5.541601 0.100344 0.010140 0.017018 -0.028663 -1.143237 7.462072 0.941778 2.757541 20.191743 0.000000 0.000000 0.000000 1.318341 -0.467661 4.191331 -7.663882 -5.535843 -4.340885 -26.423837 5.312861 -11.054879 0.342088 -61.141251 -0.080134 0.000000 0.000000 0.000000 -2.078989 0.319696 3.863955 20.894737 2.639190 -1.565742 27.575007 -7.661652 -21.251835 -0.840215 45.889135 -1.305415 0.000000 0.000000 0.000000 
